# xmcd CD database file
#
# Track frame offsets:
#	150
#	25430
#	45692
#	66307
#	87661
#	103948
#	121460
#	146037
#	172681
#	200105
#	229966
#	251000
#	275198
#	298657
#	324565
#
# Disc length: 4586 seconds
#
# Revision: 0
# Processed by: cddbd v1.5.2PL0 Copyright (c) Steve Scherf et al.
# Submitted via: CDex 1.51
#
DISCID=f511e80f
DTITLE=verschieden - bombay lounge cd2
DYEAR=1900
DGENRE=New Age
TTITLE0=a r rahman &nusrath fateh ali khan - gurus of peace
TTITLE1=oliver shanti and friends - indian ceremony
TTITLE2=ram - monsoon
TTITLE3=don shiva -koradka
TTITLE4=mystic diversions - colours
TTITLE5=rajiv basham singh - thousand mirrors
TTITLE6=red buddha  - searching buddha
TTITLE7=madushree and naresh lyer - tu bin bataye
TTITLE8=mahalakshmi lyer and farhad wadia aa jaane jaa can you feel the magic mix
TTITLE9=soham - iin dino
TTITLE10=il rheena bardwaj - yeh rishta
TTITLE11=kailash der - keri deewan
TTITLE12=chitra - raad ka nasha
TTITLE13=solu nkam and alk yagnik - tumhi deho naa
TTITLE14=sohail - baten kuckankahee si
EXTD=
EXTT0=
EXTT1=
EXTT2=
EXTT3=
EXTT4=
EXTT5=
EXTT6=
EXTT7=
EXTT8=
EXTT9=
EXTT10=
EXTT11=
EXTT12=
EXTT13=
EXTT14=
PLAYORDER=
